<mxfile host="Electron" modified="2023-06-11T11:42:33.049Z" agent="Mozilla/5.0 (X11; Linux x86_64) AppleWebKit/537.36 (KHTML, like Gecko) draw.io/21.2.1 Chrome/112.0.5615.87 Electron/24.1.2 Safari/537.36" etag="OZXfSGA9a0KbJ0aiAxWo" version="21.2.1" type="device">
  <diagram name="Seite-1" id="3WyHVrXXeMp8oxBKMpyl">
    <mxGraphModel dx="574" dy="401" grid="1" gridSize="10" guides="1" tooltips="1" connect="1" arrows="1" fold="1" page="1" pageScale="1" pageWidth="827" pageHeight="1169" math="0" shadow="0">
      <root>
        <mxCell id="0" />
        <mxCell id="1" parent="0" />
        <mxCell id="YGqxyH6ZBzAJUNLKgyr1-17" value="" style="edgeStyle=orthogonalEdgeStyle;rounded=0;orthogonalLoop=1;jettySize=auto;html=1;endArrow=none;endFill=0;startArrow=classic;startFill=1;" edge="1" parent="1" source="YGqxyH6ZBzAJUNLKgyr1-15" target="YGqxyH6ZBzAJUNLKgyr1-3">
          <mxGeometry relative="1" as="geometry" />
        </mxCell>
        <mxCell id="YGqxyH6ZBzAJUNLKgyr1-21" value="" style="edgeStyle=orthogonalEdgeStyle;rounded=0;orthogonalLoop=1;jettySize=auto;html=1;" edge="1" parent="1" source="YGqxyH6ZBzAJUNLKgyr1-15" target="YGqxyH6ZBzAJUNLKgyr1-5">
          <mxGeometry relative="1" as="geometry" />
        </mxCell>
        <mxCell id="YGqxyH6ZBzAJUNLKgyr1-15" value="" style="rounded=0;whiteSpace=wrap;html=1;" vertex="1" parent="1">
          <mxGeometry x="260" y="440" width="80" height="40" as="geometry" />
        </mxCell>
        <mxCell id="YGqxyH6ZBzAJUNLKgyr1-3" value="" style="verticalLabelPosition=bottom;shadow=0;dashed=0;align=center;html=1;verticalAlign=top;shape=mxgraph.electrical.opto_electronics.opto-coupler;" vertex="1" parent="1">
          <mxGeometry x="160" y="440" width="80" height="40" as="geometry" />
        </mxCell>
        <mxCell id="YGqxyH6ZBzAJUNLKgyr1-23" style="edgeStyle=orthogonalEdgeStyle;rounded=0;orthogonalLoop=1;jettySize=auto;html=1;exitX=1;exitY=0.5;exitDx=0;exitDy=0;exitPerimeter=0;" edge="1" parent="1" source="YGqxyH6ZBzAJUNLKgyr1-5">
          <mxGeometry relative="1" as="geometry">
            <mxPoint x="420" y="460" as="targetPoint" />
          </mxGeometry>
        </mxCell>
        <mxCell id="YGqxyH6ZBzAJUNLKgyr1-5" value="" style="verticalLabelPosition=bottom;shadow=0;dashed=0;align=center;html=1;verticalAlign=top;shape=mxgraph.electrical.abstract.operational_amp_1;" vertex="1" parent="1">
          <mxGeometry x="360" y="440" width="40" height="40" as="geometry" />
        </mxCell>
        <mxCell id="YGqxyH6ZBzAJUNLKgyr1-7" value="" style="pointerEvents=1;verticalLabelPosition=bottom;shadow=0;dashed=0;align=center;html=1;verticalAlign=top;shape=mxgraph.electrical.resistors.resistor_2;" vertex="1" parent="1">
          <mxGeometry x="273" y="444.5" width="40" height="10" as="geometry" />
        </mxCell>
        <mxCell id="YGqxyH6ZBzAJUNLKgyr1-8" value="" style="pointerEvents=1;verticalLabelPosition=bottom;shadow=0;dashed=0;align=center;html=1;verticalAlign=top;shape=mxgraph.electrical.capacitors.capacitor_1;rotation=90;" vertex="1" parent="1">
          <mxGeometry x="310" y="454.5" width="25" height="15" as="geometry" />
        </mxCell>
        <mxCell id="YGqxyH6ZBzAJUNLKgyr1-11" value="" style="edgeStyle=orthogonalEdgeStyle;rounded=0;orthogonalLoop=1;jettySize=auto;html=1;" edge="1" parent="1" source="YGqxyH6ZBzAJUNLKgyr1-9" target="YGqxyH6ZBzAJUNLKgyr1-3">
          <mxGeometry relative="1" as="geometry" />
        </mxCell>
        <mxCell id="YGqxyH6ZBzAJUNLKgyr1-9" value="" style="pointerEvents=1;verticalLabelPosition=bottom;shadow=0;dashed=0;align=center;html=1;verticalAlign=top;shape=mxgraph.electrical.signal_sources.source;aspect=fixed;points=[[0.5,0,0],[1,0.5,0],[0.5,1,0],[0,0.5,0]];elSignalType=square;" vertex="1" parent="1">
          <mxGeometry x="100" y="440" width="40" height="40" as="geometry" />
        </mxCell>
        <mxCell id="YGqxyH6ZBzAJUNLKgyr1-24" style="edgeStyle=orthogonalEdgeStyle;rounded=0;orthogonalLoop=1;jettySize=auto;html=1;exitX=0;exitY=0.5;exitDx=0;exitDy=0;exitPerimeter=0;endArrow=none;endFill=0;" edge="1" parent="1">
          <mxGeometry relative="1" as="geometry">
            <mxPoint x="322.5" y="449.5" as="sourcePoint" />
            <mxPoint x="313" y="450" as="targetPoint" />
          </mxGeometry>
        </mxCell>
        <mxCell id="YGqxyH6ZBzAJUNLKgyr1-27" value="PWM" style="text;html=1;align=center;verticalAlign=middle;resizable=0;points=[];autosize=1;strokeColor=none;fillColor=none;" vertex="1" parent="1">
          <mxGeometry x="95" y="477" width="50" height="30" as="geometry" />
        </mxCell>
        <mxCell id="YGqxyH6ZBzAJUNLKgyr1-28" value="Analog" style="text;html=1;align=center;verticalAlign=middle;resizable=0;points=[];autosize=1;strokeColor=none;fillColor=none;" vertex="1" parent="1">
          <mxGeometry x="414" y="445" width="60" height="30" as="geometry" />
        </mxCell>
        <mxCell id="YGqxyH6ZBzAJUNLKgyr1-29" value="Optokoppler" style="text;html=1;align=center;verticalAlign=middle;resizable=0;points=[];autosize=1;strokeColor=none;fillColor=none;" vertex="1" parent="1">
          <mxGeometry x="154" y="477" width="90" height="30" as="geometry" />
        </mxCell>
        <mxCell id="YGqxyH6ZBzAJUNLKgyr1-30" value="RC - Filter" style="text;html=1;align=center;verticalAlign=middle;resizable=0;points=[];autosize=1;strokeColor=none;fillColor=none;" vertex="1" parent="1">
          <mxGeometry x="260" y="477" width="80" height="30" as="geometry" />
        </mxCell>
        <mxCell id="YGqxyH6ZBzAJUNLKgyr1-31" value="OP - Amp" style="text;html=1;align=center;verticalAlign=middle;resizable=0;points=[];autosize=1;strokeColor=none;fillColor=none;" vertex="1" parent="1">
          <mxGeometry x="345" y="477" width="80" height="30" as="geometry" />
        </mxCell>
      </root>
    </mxGraphModel>
  </diagram>
</mxfile>
